<svg width="50" height="50" viewBox="0 0 50 50" fill="none" xmlns="http://www.w3.org/2000/svg">
<path fill-rule="evenodd" clip-rule="evenodd" d="M24.65 43.5312C26.6584 43.5008 30.7996 44.6627 31.8649 48.774L24.65 43.5312ZM24.6501 43.5315C25.2417 45.4512 27.6264 49.0313 31.865 48.7742L24.6501 43.5315Z" fill="#62A3F9"/>
<path fill-rule="evenodd" clip-rule="evenodd" d="M17.5094 48.7747C19.5177 48.8051 23.659 47.6431 24.7243 43.5319L17.5094 48.7747ZM17.5094 48.7744C18.1011 46.8546 20.4857 43.2745 24.7244 43.5317L17.5094 48.7744Z" fill="#62A3F9"/>
<path fill-rule="evenodd" clip-rule="evenodd" d="M24.65 6.46948C26.6584 6.49994 30.7996 5.33797 31.8649 1.22671L24.65 6.46948ZM24.6501 6.46919C25.2417 4.54947 27.6264 0.969374 31.865 1.22653L24.6501 6.46919Z" fill="#62A3F9"/>
<path fill-rule="evenodd" clip-rule="evenodd" d="M17.5094 1.22535C19.5177 1.19489 23.659 2.35686 24.7243 6.46812L17.5094 1.22535ZM17.5094 1.22563C18.1011 3.14536 20.4857 6.72545 24.7244 6.4683L17.5094 1.22563Z" fill="#62A3F9"/>
<path fill-rule="evenodd" clip-rule="evenodd" d="M11.557 38.0754C12.9987 39.4741 15.1056 43.2245 12.9521 46.8849L11.557 38.0754ZM11.5564 38.0755C10.6174 39.8514 9.77242 44.0693 12.9515 46.8851L11.5564 38.0755Z" fill="#62A3F9"/>
<path fill-rule="evenodd" clip-rule="evenodd" d="M2.80215 36.7345C4.57776 35.7955 8.79511 34.9503 11.6105 38.1299L2.80215 36.7345ZM2.80289 36.735C4.20145 38.1769 7.95127 40.2841 11.6112 38.1303L2.80289 36.735Z" fill="#62A3F9"/>
<path fill-rule="evenodd" clip-rule="evenodd" d="M37.7553 11.8718C39.5309 10.9327 43.7482 10.0876 46.5636 13.2671L37.7553 11.8718ZM37.756 11.8723C39.1546 13.3142 42.9044 15.4213 46.5643 13.2675L37.756 11.8723Z" fill="#62A3F9"/>
<path fill-rule="evenodd" clip-rule="evenodd" d="M36.4196 3.11379C35.4807 4.88966 34.6357 9.1076 37.8148 11.9234L36.4196 3.11379ZM36.4198 3.11405C37.8615 4.51281 39.9684 8.26316 37.8148 11.9236L36.4198 3.11405Z" fill="#62A3F9"/>
<path fill-rule="evenodd" clip-rule="evenodd" d="M37.7572 38.1327C39.5328 39.0718 43.7502 39.9169 46.5655 36.7374L37.7572 38.1327ZM37.7577 38.1325C39.1562 36.6906 42.906 34.5834 46.566 36.7372L37.7577 38.1325Z" fill="#62A3F9"/>
<path fill-rule="evenodd" clip-rule="evenodd" d="M36.4138 46.8893C35.4748 45.1135 34.6298 40.8955 37.8089 38.0798L36.4138 46.8893ZM36.4144 46.8891C37.8561 45.4903 39.963 41.74 37.8095 38.0795L36.4144 46.8891Z" fill="#62A3F9"/>
<path fill-rule="evenodd" clip-rule="evenodd" d="M11.5524 11.9258C10.6135 10.15 9.7685 5.93201 12.9476 3.11626L11.5524 11.9258ZM11.5531 11.925C12.9948 10.5263 15.1016 6.7759 12.9481 3.11543L11.5531 11.925Z" fill="#62A3F9"/>
<path fill-rule="evenodd" clip-rule="evenodd" d="M2.79824 13.2687C4.57386 14.2077 8.7912 15.0529 11.6066 11.8733L2.79824 13.2687ZM2.79899 13.2682C4.19754 11.8263 7.94736 9.7191 11.6073 11.8729L2.79899 13.2682Z" fill="#62A3F9"/>
<path fill-rule="evenodd" clip-rule="evenodd" d="M43.5306 25.4138C45.4501 24.8222 49.0298 22.4373 48.7725 18.1979L43.5306 25.4138ZM43.5303 25.4136C43.4997 23.4049 44.6614 19.263 48.7722 18.1977L43.5303 25.4136Z" fill="#62A3F9"/>
<path fill-rule="evenodd" clip-rule="evenodd" d="M48.7741 32.5546C46.8546 31.9629 43.2749 29.578 43.5322 25.3387L48.7741 32.5546ZM48.7744 32.5543C48.8049 30.5457 47.6433 26.4038 43.5325 25.3385L48.7744 32.5543Z" fill="#62A3F9"/>
<path fill-rule="evenodd" clip-rule="evenodd" d="M1.22753 18.1969C0.970325 22.4362 4.54991 24.8211 6.4694 25.4127L6.46917 25.4124C6.49971 23.4037 5.33802 19.2618 1.22723 18.1965L1.22753 18.1969Z" fill="#62A3F9"/>
<path fill-rule="evenodd" clip-rule="evenodd" d="M6.46573 25.3373C2.35509 26.4027 1.19344 30.5445 1.22398 32.5531L1.2241 32.5529C3.14361 31.9613 6.72322 29.5764 6.46593 25.337L6.46573 25.3373Z" fill="#62A3F9"/>
<path fill-rule="evenodd" clip-rule="evenodd" d="M24.7471 38.2348C25.1697 39.606 26.8729 42.1632 29.9004 41.9795L24.7471 38.2348ZM24.7483 38.2351C26.1827 38.2134 29.1407 39.0433 29.9015 41.9798L24.7483 38.2351Z" fill="#62A3F9"/>
<path fill-rule="evenodd" clip-rule="evenodd" d="M19.6455 41.9802C20.0681 40.609 21.7714 38.0519 24.7988 38.2355L19.6455 41.9802ZM19.6462 41.9807C21.0807 42.0024 24.0386 41.1725 24.7995 38.2359L19.6462 41.9807Z" fill="#62A3F9"/>
<path fill-rule="evenodd" clip-rule="evenodd" d="M24.7412 11.7624C25.1638 10.3912 26.8671 7.83406 29.8946 8.01774L24.7412 11.7624ZM24.742 11.7624C26.1764 11.7842 29.1343 10.9542 29.8952 8.0177L24.742 11.7624Z" fill="#62A3F9"/>
<path fill-rule="evenodd" clip-rule="evenodd" d="M19.6455 8.01751C20.0681 9.3887 21.7714 11.9458 24.7988 11.7622L19.6455 8.01751ZM19.6462 8.01734C21.0807 7.99558 24.0386 8.82554 24.7995 11.7621L19.6462 8.01734Z" fill="#62A3F9"/>
<path fill-rule="evenodd" clip-rule="evenodd" d="M15.3984 34.339C15.3983 34.3389 15.3982 34.3388 15.3982 34.3387L15.3983 34.3394C14.7278 35.608 14.1247 38.6199 16.3945 40.6309L16.3946 40.6311C16.3946 40.6311 16.3946 40.631 16.3946 40.631C16.3948 40.6311 16.3949 40.6312 16.395 40.6313L16.3949 40.6306C17.9323 38.0165 16.4282 35.3384 15.3985 34.3391L15.3985 34.3389C15.3985 34.339 15.3985 34.339 15.3984 34.339Z" fill="#62A3F9"/>
<path fill-rule="evenodd" clip-rule="evenodd" d="M15.4365 34.3766C13.4257 32.1056 10.4135 32.7092 9.14524 33.38L12.6546 33.9359L9.14631 33.3802C10.1452 34.4101 12.8235 35.9152 15.4377 34.3768L15.4365 34.3766Z" fill="#62A3F9"/>
<path fill-rule="evenodd" clip-rule="evenodd" d="M34.112 15.6202C35.3803 14.9494 38.3925 14.3458 40.4034 16.6168L34.112 15.6202ZM34.1127 15.6207C35.1116 16.6506 37.7899 18.1556 40.404 16.6172L34.1127 15.6207Z" fill="#62A3F9"/>
<path fill-rule="evenodd" clip-rule="evenodd" d="M33.1524 9.36509C32.4817 10.6335 31.8782 13.6463 34.1489 15.6575L33.1524 9.36509ZM33.1525 9.36532C34.1822 10.3644 35.6871 13.0432 34.1489 15.6577L33.1525 9.36532Z" fill="#62A3F9"/>
<path fill-rule="evenodd" clip-rule="evenodd" d="M40.3994 33.3807C38.3886 35.6517 35.3764 35.0481 34.1081 34.3773L37.175 33.8915L34.1092 34.3771C35.1081 33.3472 37.7864 31.8421 40.4005 33.3805L40.3994 33.3807Z" fill="#62A3F9"/>
<path fill-rule="evenodd" clip-rule="evenodd" d="M33.1504 40.6334C32.4798 39.365 31.8762 36.3522 34.1469 34.341L33.1504 40.6334ZM33.1509 40.6332C34.1806 39.6341 35.6855 36.9553 34.1473 34.3408L33.1509 40.6332Z" fill="#62A3F9"/>
<path fill-rule="evenodd" clip-rule="evenodd" d="M15.4043 15.6587C14.7337 14.3902 14.1301 11.3775 16.4008 9.36631L15.4043 15.6587ZM15.4045 15.6585C16.4342 14.6594 17.939 11.9806 16.4009 9.36606L15.4045 15.6585Z" fill="#62A3F9"/>
<path fill-rule="evenodd" clip-rule="evenodd" d="M15.4443 15.6215C13.4335 17.8925 10.4213 17.2889 9.15305 16.6181L12.3561 16.1107L9.15412 16.6179C10.153 15.588 12.8313 14.0829 15.4455 15.6213L15.4443 15.6215Z" fill="#62A3F9"/>
<path fill-rule="evenodd" clip-rule="evenodd" d="M38.2324 25.2943C38.2324 25.2944 38.2324 25.2944 38.2324 25.2945L38.2326 25.2943C39.6036 24.8716 42.1599 23.1682 41.9763 20.1406L41.9765 20.1404C41.9764 20.1405 41.9764 20.1405 41.9763 20.1405C41.9763 20.1404 41.9763 20.1403 41.9763 20.1403L41.9761 20.1405C39.0405 20.9015 38.2107 23.8595 38.2324 25.2942L38.2323 25.2944C38.2323 25.2943 38.2324 25.2943 38.2324 25.2943Z" fill="#62A3F9"/>
<path fill-rule="evenodd" clip-rule="evenodd" d="M41.9728 30.3958C40.6018 29.9732 38.045 28.2697 38.2288 25.2417L41.9728 30.3958ZM41.9733 30.3953C41.9951 28.9606 41.1653 26.0021 38.2292 25.2412L41.9733 30.3953Z" fill="#62A3F9"/>
<path fill-rule="evenodd" clip-rule="evenodd" d="M11.7638 25.295C10.3928 24.8724 7.83604 23.1689 8.01981 20.1409L11.7638 25.295ZM11.7643 25.2945C11.7861 23.8598 10.9564 20.9013 8.02021 20.1404L11.7643 25.2945Z" fill="#62A3F9"/>
<path fill-rule="evenodd" clip-rule="evenodd" d="M8.02039 30.395C8.02006 30.3951 8.01972 30.3952 8.01939 30.3954L8.02037 30.394C7.9992 28.9589 8.8291 26.0032 11.7629 25.2419L11.7634 25.2413C11.7634 25.2414 11.7634 25.2416 11.7634 25.2418C11.7638 25.2417 11.7641 25.2416 11.7645 25.2415L11.7635 25.2429C11.9462 28.2688 9.39204 29.9716 8.02091 30.3949L8.0204 30.3956C8.02039 30.3954 8.02039 30.3952 8.02039 30.395Z" fill="#62A3F9"/>
<path fill-rule="evenodd" clip-rule="evenodd" d="M24.8288 34.0026C25.1162 34.935 26.2744 36.6738 28.3331 36.5489L24.8288 34.0026ZM24.8302 34.0015C25.8057 33.9867 27.8171 34.551 28.3345 36.5479L24.8302 34.0015Z" fill="#62A3F9"/>
<path fill-rule="evenodd" clip-rule="evenodd" d="M21.3601 36.5493C21.6474 35.6169 22.8057 33.878 24.8644 34.0029L21.3601 36.5493ZM21.3615 36.55C22.3369 36.5648 24.3483 36.0004 24.8657 34.0036L21.3615 36.55Z" fill="#62A3F9"/>
<path fill-rule="evenodd" clip-rule="evenodd" d="M24.8288 16.0005C25.1162 15.068 26.2744 13.3292 28.3331 13.4541L24.8288 16.0005ZM24.8311 16.0009C25.8066 16.0157 27.818 15.4513 28.3354 13.4545L24.8311 16.0009Z" fill="#62A3F9"/>
<path fill-rule="evenodd" clip-rule="evenodd" d="M21.3601 13.4538C21.6474 14.3862 22.8057 16.1251 24.8644 16.0002L21.3601 13.4538ZM21.3615 13.4531C22.3369 13.4383 24.3483 14.0027 24.8657 15.9995L21.3615 13.4531Z" fill="#62A3F9"/>
<path fill-rule="evenodd" clip-rule="evenodd" d="M18.4785 31.3539C18.0224 32.2164 17.612 34.2651 19.1561 35.6327L18.4785 31.3539ZM18.4803 31.3542C19.1805 32.0336 20.2038 33.8551 19.1579 35.633L18.4803 31.3542Z" fill="#62A3F9"/>
<path fill-rule="evenodd" clip-rule="evenodd" d="M18.5067 31.3807C17.1393 29.8365 15.0911 30.247 14.2287 30.7031L14.2299 30.7033C14.9092 31.4036 16.7304 32.427 18.508 31.3809L18.5067 31.3807Z" fill="#62A3F9"/>
<path fill-rule="evenodd" clip-rule="evenodd" d="M35.4871 19.3037C34.1197 17.7597 32.0715 18.1701 31.2092 18.6262L31.2103 18.6264C31.8897 19.3267 33.7108 20.3499 35.4883 19.3039L35.4871 19.3037Z" fill="#62A3F9"/>
<path fill-rule="evenodd" clip-rule="evenodd" d="M30.5566 14.3735C30.1005 15.236 29.6901 17.2847 31.2342 18.6523L30.5566 14.3735ZM30.557 14.3742C31.2572 15.0536 32.2805 16.8751 31.2346 18.653L30.557 14.3742Z" fill="#62A3F9"/>
<path fill-rule="evenodd" clip-rule="evenodd" d="M35.4833 30.7028C34.1159 32.2469 32.0676 31.8365 31.2052 31.3804L31.2065 31.3802C31.8858 30.6799 33.707 29.6565 35.4846 30.7026L35.4833 30.7028Z" fill="#62A3F9"/>
<path fill-rule="evenodd" clip-rule="evenodd" d="M30.5507 35.6334C30.5507 35.6334 30.5507 35.6334 30.5507 35.6335L30.5507 35.6333C31.2509 34.9538 32.274 33.1325 31.2283 31.3548L31.2283 31.3546C31.2283 31.3547 31.2283 31.3547 31.2283 31.3547C31.2283 31.3547 31.2282 31.3546 31.2282 31.3546L31.2282 31.3548C29.6844 32.7223 30.0947 34.7707 30.5507 35.6333L30.5506 35.6334C30.5507 35.6334 30.5507 35.6334 30.5507 35.6334Z" fill="#62A3F9"/>
<path fill-rule="evenodd" clip-rule="evenodd" d="M18.4746 18.6505C18.0185 17.7879 17.6081 15.7393 19.1522 14.3716L18.4746 18.6505ZM18.475 18.6498C19.1752 17.9704 20.1985 16.1488 19.1525 14.371L18.475 18.6498Z" fill="#62A3F9"/>
<path fill-rule="evenodd" clip-rule="evenodd" d="M18.5008 18.6262C17.1334 20.1702 15.0852 19.7598 14.2228 19.3037L14.2246 19.3034C14.904 18.6031 16.7251 17.5799 18.5026 18.6259L18.5008 18.6262Z" fill="#62A3F9"/>
<path fill-rule="evenodd" clip-rule="evenodd" d="M34.0045 25.2025C34.9368 24.9151 36.6754 23.7567 36.5505 21.6977L34.0045 25.2025ZM34.0035 25.2017C33.9886 24.2261 34.5529 22.2144 36.5495 21.6969L34.0035 25.2017Z" fill="#62A3F9"/>
<path fill-rule="evenodd" clip-rule="evenodd" d="M36.5551 28.6703C36.5699 27.6947 36.0057 25.683 34.0091 25.1656L36.5551 28.6703ZM36.5539 28.6708C35.6216 28.3835 33.883 27.2251 34.008 25.1661L36.5539 28.6708Z" fill="#62A3F9"/>
<path fill-rule="evenodd" clip-rule="evenodd" d="M16.0072 25.1996C15.0749 24.9122 13.3363 23.7539 13.4613 21.6948L16.0072 25.1996ZM16.0082 25.1989C16.0231 24.2233 15.4589 22.2115 13.4623 21.6941L16.0082 25.1989Z" fill="#62A3F9"/>
<path fill-rule="evenodd" clip-rule="evenodd" d="M13.4596 28.6678C14.3919 28.3804 16.1305 27.2221 16.0055 25.163L13.4596 28.6678ZM13.4586 28.6671C13.4437 27.6915 14.0079 25.6797 16.0045 25.1623L13.4586 28.6671Z" fill="#62A3F9"/>
</svg>
