<svg width="108" height="41" viewBox="0 0 108 41" fill="none" xmlns="http://www.w3.org/2000/svg">
<path fill-rule="evenodd" clip-rule="evenodd" d="M25.4935 39.5188C24.641 36.2302 21.3283 35.3008 19.7217 35.3251L19.7223 35.3256C20.1959 36.8614 22.1034 39.7246 25.4936 39.5193L25.4936 39.5193C25.4936 39.5193 25.4936 39.5193 25.4936 39.5193C25.4938 39.5193 25.494 39.5193 25.4942 39.5193L25.4935 39.5188Z" fill="white"/>
<path fill-rule="evenodd" clip-rule="evenodd" d="M19.7806 35.3257C18.9281 38.6143 15.6154 39.5437 14.0088 39.5194L14.0095 39.5189C14.483 37.9831 16.3905 35.1198 19.7807 35.3252L19.7807 35.3251C19.7807 35.3252 19.7807 35.3252 19.7807 35.3252C19.7809 35.3252 19.7811 35.3252 19.7813 35.3252L19.7806 35.3257Z" fill="white"/>
<path fill-rule="evenodd" clip-rule="evenodd" d="M25.4935 1.48185C24.641 4.77039 21.3283 5.69985 19.7217 5.67549L19.7223 5.67502C20.1959 4.13923 22.1034 1.27597 25.4936 1.4813L25.4936 1.48127C25.4936 1.48128 25.4936 1.48129 25.4936 1.4813C25.4938 1.48131 25.494 1.48132 25.4942 1.48133L25.4935 1.48185Z" fill="white"/>
<path fill-rule="evenodd" clip-rule="evenodd" d="M19.7806 5.67428C18.9281 2.38574 15.6154 1.45628 14.0088 1.48064L14.0095 1.4811C14.483 3.0169 16.3905 5.88016 19.7807 5.67483L19.7807 5.67486C19.7807 5.67485 19.7807 5.67484 19.7807 5.67483C19.7809 5.67482 19.7811 5.67481 19.7813 5.6748L19.7806 5.67428Z" fill="white"/>
<path fill-rule="evenodd" clip-rule="evenodd" d="M9.24862 30.9606C10.402 32.0796 12.0875 35.0799 10.3647 38.0083L9.24862 30.9606ZM9.24743 30.9609C8.49628 32.3816 7.82029 35.756 10.3636 38.0086L9.24743 30.9609Z" fill="white"/>
<path fill-rule="evenodd" clip-rule="evenodd" d="M2.24406 29.8877C3.66455 29.1365 7.03843 28.4604 9.29071 31.004L2.24406 29.8877ZM2.24421 29.8882C3.36306 31.0417 6.36291 32.7274 9.29087 31.0044L2.24421 29.8882Z" fill="white"/>
<path fill-rule="evenodd" clip-rule="evenodd" d="M30.207 9.99735C31.6274 9.24609 35.0013 8.57 37.2536 11.1136L30.207 9.99735ZM30.2071 9.9978C31.3259 11.1513 34.3258 12.837 37.2538 11.114L30.2071 9.9978Z" fill="white"/>
<path fill-rule="evenodd" clip-rule="evenodd" d="M29.1377 2.99167C29.1378 2.99148 29.1379 2.99129 29.138 2.99111L29.1382 2.99211C30.2914 4.11161 31.9754 7.11057 30.254 10.0379L30.2542 10.0388C30.254 10.0386 30.2539 10.0385 30.2538 10.0384C30.2536 10.0386 30.2535 10.0388 30.2534 10.039L30.2532 10.0379C27.7117 7.78587 28.3867 4.41324 29.1375 2.99213L29.1374 2.99131C29.1375 2.99143 29.1376 2.99155 29.1377 2.99167Z" fill="white"/>
<path fill-rule="evenodd" clip-rule="evenodd" d="M30.2089 31.0057C31.6294 31.757 35.0033 32.4331 37.2556 29.8894L30.2089 31.0057ZM30.2091 31.0053C31.3279 29.8518 34.3278 28.166 37.2557 29.8891L30.2091 31.0053Z" fill="white"/>
<path fill-rule="evenodd" clip-rule="evenodd" d="M29.1322 38.0112C28.381 36.5905 27.705 33.2162 30.2483 30.9636L29.1322 38.0112ZM29.1335 38.011C30.2868 36.892 31.9723 33.8917 30.2495 30.9633L29.1335 38.011Z" fill="white"/>
<path fill-rule="evenodd" clip-rule="evenodd" d="M9.24254 10.0405C8.49138 8.61982 7.81539 5.24546 10.3587 2.99286L9.24254 10.0405ZM9.24372 10.0398C10.3971 8.9208 12.0826 5.92052 10.3598 2.99214L9.24372 10.0398Z" fill="white"/>
<path fill-rule="evenodd" clip-rule="evenodd" d="M2.24113 11.1146C3.66162 11.8659 7.0355 12.5419 9.28778 9.9983L2.24113 11.1146ZM2.24128 11.1141C3.36013 9.96062 6.35998 8.27489 9.28794 9.99794L2.24128 11.1141Z" fill="white"/>
<path fill-rule="evenodd" clip-rule="evenodd" d="M34.8259 20.8311C34.8015 19.2241 35.7308 15.9106 39.0195 15.0584L34.8259 20.8311ZM34.8265 20.8314C36.3621 20.358 39.2258 18.4501 39.02 15.0586L34.8265 20.8314Z" fill="white"/>
<path fill-rule="evenodd" clip-rule="evenodd" d="M39.0217 26.5435C39.0462 24.9365 38.1168 21.623 34.8282 20.7708L39.0217 26.5435ZM39.0212 26.5438C37.4856 26.0704 34.6218 24.1625 34.8277 20.771L39.0212 26.5438Z" fill="white"/>
<path fill-rule="evenodd" clip-rule="evenodd" d="M5.17795 20.8297C5.20238 19.2228 4.27304 15.9093 0.9844 15.0571L5.17795 20.8297ZM5.17741 20.83C3.64181 20.3567 0.778091 18.4488 0.983927 15.0573L5.17741 20.83Z" fill="white"/>
<path fill-rule="evenodd" clip-rule="evenodd" d="M0.980457 26.5427C0.956029 24.9357 1.88537 21.6222 5.17401 20.77L0.980457 26.5427ZM0.981136 26.5423C2.51674 26.069 5.38046 24.1611 5.17462 20.7696L0.981136 26.5423Z" fill="white"/>
<path fill-rule="evenodd" clip-rule="evenodd" d="M20.0828 31.0889C20.4209 32.1858 21.7835 34.2316 24.2055 34.0846L20.0828 31.0889ZM20.0831 31.0889C21.2307 31.0715 23.597 31.7354 24.2057 34.0847L20.0831 31.0889Z" fill="white"/>
<path fill-rule="evenodd" clip-rule="evenodd" d="M16.0031 34.0854C17.1507 34.1028 19.517 33.4389 20.1257 31.0897L16.0031 34.0854ZM16.0028 34.0849C16.3409 32.988 17.7035 30.9422 20.1254 31.0892L16.0028 34.0849Z" fill="white"/>
<path fill-rule="evenodd" clip-rule="evenodd" d="M20.0789 9.9105C20.417 8.81355 21.7796 6.76784 24.2016 6.91478L20.0789 9.9105ZM20.0795 9.91053C21.2271 9.92794 23.5934 9.26397 24.2021 6.91474L20.0795 9.91053Z" fill="white"/>
<path fill-rule="evenodd" clip-rule="evenodd" d="M16.0028 6.91469C16.3408 8.01165 17.7034 10.0574 20.1254 9.91042L16.0028 6.91469ZM16.0033 6.91456C17.1509 6.89716 19.5172 7.56112 20.1259 9.91035L16.0033 6.91456Z" fill="white"/>
<path fill-rule="evenodd" clip-rule="evenodd" d="M12.6056 27.9721C12.6056 27.972 12.6056 27.972 12.6057 27.9719L12.6057 27.9722C13.4294 28.7716 14.6328 30.9142 13.4028 33.0054L13.4029 33.0058C13.4028 33.0058 13.4028 33.0057 13.4027 33.0057C13.4027 33.0057 13.4026 33.0058 13.4026 33.0059L13.4025 33.0055C11.5866 31.3967 12.0691 28.9871 12.6055 27.9722L12.6054 27.9719C12.6055 27.972 12.6055 27.972 12.6056 27.9721Z" fill="white"/>
<path fill-rule="evenodd" clip-rule="evenodd" d="M7.60193 27.2048C8.61652 26.6682 11.0263 26.1853 12.635 28.0021L7.60193 27.2048ZM7.60314 27.2051C8.40228 28.029 10.5449 29.2331 12.6362 28.0024L7.60314 27.2051Z" fill="white"/>
<path fill-rule="evenodd" clip-rule="evenodd" d="M32.6086 13.7946C30.9999 11.9778 28.5901 12.4607 27.5756 12.9973L30.368 13.4397L27.5768 12.9975C28.3759 13.8214 30.5186 15.0255 32.6099 13.7948L32.6086 13.7946Z" fill="white"/>
<path fill-rule="evenodd" clip-rule="evenodd" d="M26.8056 7.99382C26.8057 7.99368 26.8058 7.99353 26.8059 7.99339L26.806 7.99416C27.6297 8.79374 28.8326 10.9359 27.603 13.0269L27.6031 13.0273C27.603 13.0272 27.6029 13.0272 27.6029 13.0271C27.6028 13.0273 27.6027 13.0274 27.6026 13.0276L27.6025 13.0268C25.787 11.4181 26.2692 9.00904 26.8055 7.99402L26.8055 7.99367C26.8055 7.99372 26.8056 7.99377 26.8056 7.99382Z" fill="white"/>
<path fill-rule="evenodd" clip-rule="evenodd" d="M27.5726 28.0026C28.5872 28.5392 30.997 29.0221 32.6057 27.2053L27.5726 28.0026ZM27.5738 28.0023C28.373 27.1784 30.5156 25.9743 32.6069 27.205L27.5738 28.0023Z" fill="white"/>
<path fill-rule="evenodd" clip-rule="evenodd" d="M26.8066 33.007C26.8067 33.0071 26.8068 33.0073 26.8068 33.0075L26.807 33.0066C27.6306 32.207 28.8334 30.0649 27.604 27.974L27.604 27.9736C27.604 27.9736 27.6039 27.9737 27.6038 27.9738C27.6037 27.9736 27.6036 27.9734 27.6035 27.9733L27.6034 27.9742C25.7881 29.5827 26.2702 31.9917 26.8065 33.0067L26.8064 33.0072C26.8065 33.0071 26.8065 33.007 26.8066 33.007Z" fill="white"/>
<path fill-rule="evenodd" clip-rule="evenodd" d="M12.6094 13.0273C12.6094 13.0274 12.6095 13.0276 12.6096 13.0277L12.6097 13.027C13.4334 12.2274 14.6363 10.0852 13.4067 7.99422L13.4068 7.99383C13.4067 7.99388 13.4066 7.99394 13.4066 7.994C13.4065 7.99385 13.4064 7.99369 13.4063 7.99354L13.4062 7.99435C11.5907 9.60297 12.0729 12.0121 12.6092 13.0271L12.6092 13.0275C12.6092 13.0274 12.6093 13.0273 12.6094 13.0273Z" fill="white"/>
<path fill-rule="evenodd" clip-rule="evenodd" d="M7.60779 13.7953C8.62238 14.3319 11.0322 14.8148 12.6409 12.998L7.60779 13.7953ZM7.609 13.795C8.40814 12.9711 10.5508 11.767 12.6421 12.9977L7.609 13.795Z" fill="white"/>
<path fill-rule="evenodd" clip-rule="evenodd" d="M30.871 20.736C30.8536 19.5882 31.5173 17.2215 33.8663 16.6128L30.871 20.736ZM30.8712 20.7361C31.968 20.398 34.0134 19.0352 33.8664 16.6128L30.8712 20.7361Z" fill="white"/>
<path fill-rule="evenodd" clip-rule="evenodd" d="M33.8642 24.8172C32.7674 24.4791 30.722 23.1163 30.869 20.6939L33.8642 24.8172ZM33.8644 24.8166C33.8818 23.6688 33.218 21.3021 30.8691 20.6934L33.8644 24.8166Z" fill="white"/>
<path fill-rule="evenodd" clip-rule="evenodd" d="M9.69816 20.7369C8.60135 20.3988 6.55594 19.036 6.70296 16.6136L9.69816 20.7369ZM9.69835 20.7363C9.7158 19.5885 9.05201 17.2218 6.7031 16.613L9.69835 20.7363Z" fill="white"/>
<path fill-rule="evenodd" clip-rule="evenodd" d="M6.70398 24.8166C6.7034 24.8168 6.70282 24.817 6.70223 24.8172L6.70396 24.8148C6.68762 23.6664 7.35172 21.3043 9.69663 20.695L9.69743 20.6939C9.69745 20.6942 9.69747 20.6945 9.69748 20.6948C9.69807 20.6946 9.69866 20.6945 9.69924 20.6943L9.69759 20.6966C9.84282 23.1154 7.8019 24.477 6.70487 24.8164L6.704 24.8176C6.70399 24.8173 6.70399 24.817 6.70398 24.8166Z" fill="white"/>
<path fill-rule="evenodd" clip-rule="evenodd" d="M19.8654 27.7021C20.0953 28.448 21.0219 29.8391 22.6688 29.7392L19.8654 27.7021ZM19.867 27.7012C20.6474 27.6894 22.2565 28.1409 22.6704 29.7383L19.867 27.7012Z" fill="white"/>
<path fill-rule="evenodd" clip-rule="evenodd" d="M17.09 29.7394C17.3199 28.9935 18.2465 27.6024 19.8934 27.7023L17.09 29.7394ZM17.0916 29.7398C17.872 29.7517 19.4811 29.3002 19.895 27.7027L17.0916 29.7398Z" fill="white"/>
<path fill-rule="evenodd" clip-rule="evenodd" d="M19.8654 13.3007C20.0953 12.5548 21.0219 11.1637 22.6688 11.2636L19.8654 13.3007ZM19.8672 13.3011C20.6476 13.3129 22.2567 12.8614 22.6706 11.2639L19.8672 13.3011Z" fill="white"/>
<path fill-rule="evenodd" clip-rule="evenodd" d="M17.09 11.2633C17.3199 12.0092 18.2465 13.4003 19.8934 13.3004L17.09 11.2633ZM17.0916 11.2629C17.872 11.251 19.4811 11.7025 19.895 13.3L17.0916 11.2629Z" fill="white"/>
<path fill-rule="evenodd" clip-rule="evenodd" d="M14.7863 25.5832C14.4214 26.2733 14.0931 27.9122 15.3284 29.0063L14.7863 25.5832ZM14.7878 25.5835C15.348 26.127 16.1666 27.5842 15.3298 29.0065L14.7878 25.5835Z" fill="white"/>
<path fill-rule="evenodd" clip-rule="evenodd" d="M14.8069 25.6048C13.713 24.3695 12.0744 24.6979 11.3845 25.0627L11.3851 25.0628C11.9285 25.6231 13.3855 26.4418 14.8076 25.6049L14.8069 25.6048Z" fill="white"/>
<path fill-rule="evenodd" clip-rule="evenodd" d="M28.3909 15.943C27.2969 14.7078 25.6584 15.0361 24.9685 15.401L24.9691 15.4011C25.5126 15.9614 26.9695 16.7799 28.3915 15.9431L28.3909 15.943Z" fill="white"/>
<path fill-rule="evenodd" clip-rule="evenodd" d="M24.9881 15.4213C23.7534 14.3272 24.0817 12.6886 24.4464 11.9986L24.4466 11.9996C25.0067 12.5433 25.8245 13.9999 24.9885 15.4217L24.9885 15.4217C24.9885 15.4217 24.9885 15.4217 24.9885 15.4217C24.9884 15.4219 24.9883 15.422 24.9882 15.4222L24.9881 15.4213Z" fill="white"/>
<path fill-rule="evenodd" clip-rule="evenodd" d="M28.3909 25.0622C27.297 26.2975 25.6584 25.9691 24.9685 25.6043L24.9691 25.6042C25.5125 25.0439 26.9695 24.2252 28.3915 25.0621L28.3909 25.0622Z" fill="white"/>
<path fill-rule="evenodd" clip-rule="evenodd" d="M24.4424 29.0064C24.4424 29.0065 24.4425 29.0065 24.4425 29.0066L24.4426 29.0062C25.0027 28.4624 25.8206 27.0058 24.9846 25.584L24.9846 25.5836C24.9846 25.5836 24.9845 25.5837 24.9844 25.5838C24.9844 25.5837 24.9843 25.5836 24.9843 25.5835L24.9842 25.584C23.7497 26.6778 24.0776 28.3159 24.4423 29.0061L24.4422 29.0066C24.4423 29.0065 24.4423 29.0064 24.4424 29.0064Z" fill="white"/>
<path fill-rule="evenodd" clip-rule="evenodd" d="M15.324 11.9979C14.0893 13.092 14.4176 14.7306 14.7824 15.4206L14.7825 15.4196C15.3426 14.8758 16.1605 13.4193 15.3245 11.9975L15.3245 11.9975C15.3245 11.9975 15.3245 11.9975 15.3245 11.9975C15.3244 11.9973 15.3243 11.9971 15.3241 11.997L15.324 11.9979Z" fill="white"/>
<path fill-rule="evenodd" clip-rule="evenodd" d="M14.803 15.4009C13.7091 16.6362 12.0705 16.3079 11.3806 15.943L11.3812 15.9429C11.9246 15.3827 13.3816 14.564 14.8036 15.4008L14.803 15.4009Z" fill="white"/>
<path fill-rule="evenodd" clip-rule="evenodd" d="M27.2075 20.662C27.9534 20.4321 29.3442 19.5054 29.2443 17.8582L27.2075 20.662ZM27.2067 20.6614C27.1948 19.8809 27.6462 18.2715 29.2435 17.8576L27.2067 20.6614Z" fill="white"/>
<path fill-rule="evenodd" clip-rule="evenodd" d="M29.2456 23.4369C28.4998 23.207 27.1089 22.2803 27.2089 20.6331L29.2456 23.4369ZM29.2464 23.4363C29.2583 22.6558 28.8069 21.0464 27.2096 20.6325L29.2464 23.4363Z" fill="white"/>
<path fill-rule="evenodd" clip-rule="evenodd" d="M12.8081 20.6598C12.0623 20.4299 10.6714 19.5032 10.7714 17.856L12.8081 20.6598ZM12.8089 20.6592C12.8208 19.8787 12.3694 18.2693 10.7721 17.8554L12.8089 20.6592Z" fill="white"/>
<path fill-rule="evenodd" clip-rule="evenodd" d="M10.77 23.4343C11.5159 23.2044 12.9067 22.2777 12.8068 20.6305L10.77 23.4343ZM10.7692 23.4337C10.7573 22.6532 11.2087 21.0439 12.806 20.6299L10.7692 23.4337Z" fill="white"/>
<path d="M60.622 25.9H68.162V27.76H51.102V25.9H58.602V21.8H52.222V12.12H67.022V21.8H60.622V25.9ZM54.202 13.98V19.96H65.042V13.98H54.202ZM84.3002 20.78V11.5H86.2802V20.78H84.3002ZM75.9402 20.36C72.6602 20.36 70.5802 18.6 70.5802 16.02C70.5802 13.46 72.6602 11.68 75.9402 11.68C79.2002 11.68 81.2802 13.46 81.2802 16.02C81.2802 18.6 79.2002 20.36 75.9402 20.36ZM75.9402 18.72C77.9202 18.72 79.3002 17.72 79.3002 16.02C79.3002 14.32 77.9202 13.32 75.9402 13.32C73.9402 13.32 72.5602 14.32 72.5602 16.02C72.5602 17.72 73.9402 18.72 75.9402 18.72ZM72.0002 28.36V21.72H86.2802V28.36H72.0002ZM73.9802 26.68H84.3002V23.4H73.9802V26.68ZM105.039 15.38H107.439V17.28H105.039V23.28H103.059V11.5H105.039V15.38ZM101.799 20.26C100.739 20.72 98.6785 21.04 96.1985 21.04H89.5985V19.38H91.7585V13.6H89.6585V11.92H101.059V13.6H98.9585V19.26C100.139 19.12 101.099 18.9 101.799 18.6V20.26ZM93.6585 13.6V19.38H96.4385H97.0585V13.6H93.6585ZM99.5585 22.32C99.3985 22.96 99.1585 23.56 98.8385 24.12L105.799 26.84L105.039 28.58L97.7585 25.54C95.9785 27.36 93.2585 28.34 90.5385 28.36V26.52C93.7185 26.48 96.8385 24.86 97.5585 21.94L99.5585 22.32Z" fill="white"/>
</svg>
