<svg width="40" height="40" viewBox="0 0 40 40" fill="none" xmlns="http://www.w3.org/2000/svg">
<path fill-rule="evenodd" clip-rule="evenodd" d="M19.72 34.8248C21.3267 34.8004 24.6397 35.73 25.4919 39.019L19.72 34.8248ZM19.7201 34.825C20.1934 36.3608 22.1011 39.2249 25.4921 39.0191L19.7201 34.825Z" fill="#62A3F9"/>
<path fill-rule="evenodd" clip-rule="evenodd" d="M14.0071 39.02C15.6138 39.0443 18.9268 38.1148 19.7791 34.8257L14.0071 39.02ZM14.0072 39.0197C14.4805 37.4839 16.3882 34.6199 19.7792 34.8256L14.0072 39.0197Z" fill="#62A3F9"/>
<path fill-rule="evenodd" clip-rule="evenodd" d="M19.72 5.17573C21.3267 5.20009 24.6397 4.27052 25.4919 0.98151L19.72 5.17573ZM19.7201 5.17548C20.1934 3.6397 22.1011 0.775626 25.4921 0.981349L19.7201 5.17548Z" fill="#62A3F9"/>
<path fill-rule="evenodd" clip-rule="evenodd" d="M14.0071 0.980034C15.6138 0.955668 18.9268 1.88524 19.7791 5.17425L14.0071 0.980034ZM14.0072 0.980282C14.4805 2.51606 16.3882 5.38014 19.7792 5.17441L14.0072 0.980282Z" fill="#62A3F9"/>
<path fill-rule="evenodd" clip-rule="evenodd" d="M9.24598 30.4608C10.3993 31.5798 12.0848 34.58 10.362 37.5084L9.24598 30.4608ZM9.24548 30.4609C8.49432 31.8816 7.81833 35.2559 10.3616 37.5085L9.24548 30.4609Z" fill="#62A3F9"/>
<path fill-rule="evenodd" clip-rule="evenodd" d="M2.24211 29.3877C3.6626 28.6365 7.03648 27.9604 9.28876 30.504L2.24211 29.3877ZM2.24271 29.3881C3.36155 30.5416 6.36141 32.2274 9.28937 30.5043L2.24271 29.3881Z" fill="#62A3F9"/>
<path fill-rule="evenodd" clip-rule="evenodd" d="M30.205 9.49759C31.6255 8.74633 34.9994 8.07024 37.2516 10.6139L30.205 9.49759ZM30.2056 9.498C31.3244 10.6515 34.3243 12.3372 37.2523 10.6142L30.2056 9.498Z" fill="#62A3F9"/>
<path fill-rule="evenodd" clip-rule="evenodd" d="M29.1361 2.49111C28.3849 3.9118 27.7089 7.28616 30.2522 9.53876L29.1361 2.49111ZM29.1362 2.49132C30.2896 3.61032 31.9751 6.6106 30.2523 9.53898L29.1362 2.49132Z" fill="#62A3F9"/>
<path fill-rule="evenodd" clip-rule="evenodd" d="M30.207 30.5058C31.6274 31.2571 35.0013 31.9332 37.2536 29.3895L30.207 30.5058ZM30.2073 30.5056C31.3262 29.3521 34.326 27.6664 37.254 29.3894L30.2073 30.5056Z" fill="#62A3F9"/>
<path fill-rule="evenodd" clip-rule="evenodd" d="M29.1302 37.5113C28.3791 36.0906 27.7031 32.7163 30.2464 30.4637L29.1302 37.5113ZM29.1308 37.5111C30.2841 36.3921 31.9696 33.3918 30.2468 30.4635L29.1308 37.5111Z" fill="#62A3F9"/>
<path fill-rule="evenodd" clip-rule="evenodd" d="M9.24156 9.54063C8.49041 8.11994 7.81441 4.74558 10.3577 2.49298L9.24156 9.54063ZM9.24207 9.53998C10.3954 8.42097 12.0809 5.42069 10.3581 2.49231L9.24207 9.53998Z" fill="#62A3F9"/>
<path fill-rule="evenodd" clip-rule="evenodd" d="M2.24016 10.6147C3.66065 11.366 7.03452 12.0421 9.28681 9.49843L2.24016 10.6147ZM2.24075 10.6143C3.3596 9.4608 6.35945 7.77506 9.28742 9.49811L2.24075 10.6143Z" fill="#62A3F9"/>
<path fill-rule="evenodd" clip-rule="evenodd" d="M34.8245 20.3317C36.3601 19.8584 39.2238 17.9504 39.018 14.5589L34.8245 20.3317ZM34.8242 20.3315C34.7998 18.7246 35.7291 15.411 39.0178 14.5588L34.8242 20.3315Z" fill="#62A3F9"/>
<path fill-rule="evenodd" clip-rule="evenodd" d="M39.0193 26.0441C37.4837 25.5708 34.6199 23.6628 34.8258 20.2713L39.0193 26.0441ZM39.0195 26.0439C39.044 24.437 38.1146 21.1234 34.826 20.2712L39.0195 26.0439Z" fill="#62A3F9"/>
<path fill-rule="evenodd" clip-rule="evenodd" d="M0.982023 14.5576C0.776267 17.949 3.63993 19.8569 5.17552 20.3302L5.17533 20.33C5.19976 18.723 4.27042 15.4095 0.981778 14.5573L0.982023 14.5576Z" fill="#62A3F9"/>
<path fill-rule="evenodd" clip-rule="evenodd" d="M5.1722 20.27C1.88368 21.1223 0.954365 24.4357 0.978792 26.0426L0.978914 26.0425C2.51453 25.5691 5.37821 23.6612 5.17238 20.2697L5.1722 20.27Z" fill="#62A3F9"/>
<path fill-rule="evenodd" clip-rule="evenodd" d="M19.7957 30.5879C20.1338 31.6849 21.4964 33.7306 23.9184 33.5836L19.7957 30.5879ZM19.7967 30.5881C20.9442 30.5707 23.3106 31.2347 23.9193 33.5839L19.7967 30.5881Z" fill="#62A3F9"/>
<path fill-rule="evenodd" clip-rule="evenodd" d="M15.7157 33.584C16.0537 32.487 17.4163 30.4413 19.8383 30.5882L15.7157 33.584ZM15.7162 33.5843C16.8638 33.6018 19.2301 32.9378 19.8388 30.5886L15.7162 33.5843Z" fill="#62A3F9"/>
<path fill-rule="evenodd" clip-rule="evenodd" d="M19.7918 9.40965C20.1299 8.31269 21.4925 6.26698 23.9145 6.41392L19.7918 9.40965ZM19.7924 9.40968C20.94 9.42708 23.3063 8.76312 23.915 6.41389L19.7924 9.40968Z" fill="#62A3F9"/>
<path fill-rule="evenodd" clip-rule="evenodd" d="M15.7157 6.41359C16.0537 7.51055 17.4163 9.55626 19.8383 9.40932L15.7157 6.41359ZM15.7162 6.41346C16.8638 6.39606 19.2301 7.06002 19.8388 9.40925L15.7162 6.41346Z" fill="#62A3F9"/>
<path fill-rule="evenodd" clip-rule="evenodd" d="M12.3176 27.4713C12.3175 27.4713 12.3174 27.4712 12.3173 27.4711L12.3174 27.4717C11.781 28.4866 11.2986 30.8961 13.1145 32.5049L13.1145 32.505C13.1145 32.505 13.1145 32.505 13.1145 32.5049C13.1146 32.505 13.1147 32.5051 13.1148 32.5052L13.1147 32.5046C14.3447 30.4133 13.1414 28.2708 12.3176 27.4714L12.3176 27.4713C12.3176 27.4713 12.3176 27.4713 12.3176 27.4713Z" fill="#62A3F9"/>
<path fill-rule="evenodd" clip-rule="evenodd" d="M12.3469 27.5012C10.7382 25.6845 8.32842 26.1674 7.31385 26.704L9.77838 27.0944L7.31471 26.7041C8.11384 27.528 10.2565 28.7321 12.3478 27.5014L12.3469 27.5012Z" fill="#62A3F9"/>
<path fill-rule="evenodd" clip-rule="evenodd" d="M27.2885 12.4964C28.303 11.9598 30.7128 11.4769 32.3215 13.2938L27.2885 12.4964ZM27.289 12.4968C28.0881 13.3207 30.2307 14.5248 32.322 13.2941L27.289 12.4968Z" fill="#62A3F9"/>
<path fill-rule="evenodd" clip-rule="evenodd" d="M26.5188 7.49254C25.9823 8.50729 25.4994 10.9175 27.316 12.5264L26.5188 7.49254ZM26.5189 7.49272C27.3427 8.29199 28.5465 10.435 27.316 12.5266L26.5189 7.49272Z" fill="#62A3F9"/>
<path fill-rule="evenodd" clip-rule="evenodd" d="M32.3176 26.7043C30.7089 28.5211 28.2991 28.0382 27.2846 27.5016L29.7403 27.1126L27.2854 27.5014C28.0845 26.6775 30.2272 25.4735 32.3185 26.7042L32.3176 26.7043Z" fill="#62A3F9"/>
<path fill-rule="evenodd" clip-rule="evenodd" d="M26.5188 32.5065C25.9823 31.4917 25.4994 29.0815 27.316 27.4726L26.5188 32.5065ZM26.5192 32.5063C27.3429 31.707 28.5468 29.564 27.3163 27.4724L26.5192 32.5063Z" fill="#62A3F9"/>
<path fill-rule="evenodd" clip-rule="evenodd" d="M12.3215 12.5265C11.785 11.5118 11.3022 9.10156 13.1187 7.49261L12.3215 12.5265ZM12.3216 12.5263C13.1454 11.7271 14.3493 9.58406 13.1188 7.49241L12.3216 12.5263Z" fill="#62A3F9"/>
<path fill-rule="evenodd" clip-rule="evenodd" d="M12.3527 12.4968C10.744 14.3136 8.33428 13.8307 7.31971 13.2941L9.77764 12.9047L7.32056 13.2939C8.1197 12.47 10.2623 11.2659 12.3536 12.4967L12.3527 12.4968Z" fill="#62A3F9"/>
<path fill-rule="evenodd" clip-rule="evenodd" d="M30.5832 20.2348C30.5832 20.2349 30.5832 20.2349 30.5832 20.235L30.5833 20.2348C31.6801 19.8966 33.7252 18.534 33.5783 16.1119L33.5784 16.1117C33.5784 16.1118 33.5784 16.1118 33.5783 16.1118C33.5783 16.1117 33.5783 16.1117 33.5783 16.1116L33.5782 16.1118C31.2296 16.7206 30.5658 19.087 30.5832 20.2348L30.5831 20.2349C30.5831 20.2349 30.5832 20.2349 30.5832 20.2348Z" fill="#62A3F9"/>
<path fill-rule="evenodd" clip-rule="evenodd" d="M33.5771 24.316C32.4803 23.9779 30.4348 22.6151 30.5819 20.1927L33.5771 24.316ZM33.5774 24.3156C33.5949 23.1678 32.9311 20.8011 30.5822 20.1923L33.5774 24.3156Z" fill="#62A3F9"/>
<path fill-rule="evenodd" clip-rule="evenodd" d="M9.41105 20.2359C8.31424 19.8978 6.26883 18.535 6.41585 16.1126L9.41105 20.2359ZM9.41142 20.2355C9.42886 19.0877 8.76508 16.721 6.41617 16.1123L9.41142 20.2355Z" fill="#62A3F9"/>
<path fill-rule="evenodd" clip-rule="evenodd" d="M6.41592 24.3157C6.41565 24.3158 6.41539 24.3159 6.41512 24.316L6.41591 24.3149C6.39897 23.1668 7.0629 20.8023 9.40992 20.1932L9.41032 20.1927C9.41033 20.1928 9.41034 20.193 9.41035 20.1931C9.41062 20.1931 9.4109 20.193 9.41117 20.1929L9.4104 20.194C9.55656 22.6147 7.51325 23.9769 6.41634 24.3156L6.41593 24.3162C6.41593 24.316 6.41592 24.3159 6.41592 24.3157Z" fill="#62A3F9"/>
<path fill-rule="evenodd" clip-rule="evenodd" d="M19.8634 27.2021C20.0933 27.948 21.0199 29.3391 22.6669 29.2392L19.8634 27.2021ZM19.8646 27.2012C20.6449 27.1894 22.254 27.6409 22.668 29.2384L19.8646 27.2012Z" fill="#62A3F9"/>
<path fill-rule="evenodd" clip-rule="evenodd" d="M17.0881 29.2398C17.3179 28.4939 18.2445 27.1028 19.8915 27.2027L17.0881 29.2398ZM17.0892 29.2404C17.8695 29.2522 19.4787 28.8007 19.8926 27.2032L17.0892 29.2404Z" fill="#62A3F9"/>
<path fill-rule="evenodd" clip-rule="evenodd" d="M19.8634 12.8008C20.0933 12.0549 21.0199 10.6638 22.6669 10.7637L19.8634 12.8008ZM19.8653 12.8012C20.6456 12.813 22.2548 12.3615 22.6687 10.764L19.8653 12.8012Z" fill="#62A3F9"/>
<path fill-rule="evenodd" clip-rule="evenodd" d="M17.0881 10.7631C17.3179 11.5091 18.2445 12.9002 19.8915 12.8002L17.0881 10.7631ZM17.0892 10.7626C17.8695 10.7507 19.4787 11.2022 19.8926 12.7997L17.0892 10.7626Z" fill="#62A3F9"/>
<path fill-rule="evenodd" clip-rule="evenodd" d="M14.7843 25.0832C14.4195 25.7733 14.0912 27.4122 15.3264 28.5063L14.7843 25.0832ZM14.7858 25.0835C15.346 25.627 16.1646 27.0842 15.3279 28.5065L14.7858 25.0835Z" fill="#62A3F9"/>
<path fill-rule="evenodd" clip-rule="evenodd" d="M14.805 25.1048C13.7111 23.8695 12.0725 24.1979 11.3826 24.5627L11.3835 24.5629C11.927 25.1232 13.384 25.9418 14.806 25.105L14.805 25.1048Z" fill="#62A3F9"/>
<path fill-rule="evenodd" clip-rule="evenodd" d="M28.3889 15.4431C27.295 14.2079 25.6564 14.5362 24.9665 14.9011L24.9675 14.9013C25.511 15.4615 26.9679 16.28 28.3898 15.4432L28.3889 15.4431Z" fill="#62A3F9"/>
<path fill-rule="evenodd" clip-rule="evenodd" d="M24.4445 11.4988C24.0797 12.1888 23.7513 13.8277 24.9866 14.9218L24.4445 11.4988ZM24.4448 11.4993C25.005 12.0428 25.8236 13.5 24.9869 14.9224L24.4448 11.4993Z" fill="#62A3F9"/>
<path fill-rule="evenodd" clip-rule="evenodd" d="M28.389 24.5622C27.2951 25.7975 25.6564 25.4691 24.9665 25.1043L24.9675 25.1041C25.511 24.5438 26.9679 23.7252 28.39 24.562L28.389 24.5622Z" fill="#62A3F9"/>
<path fill-rule="evenodd" clip-rule="evenodd" d="M24.4405 28.5065C24.4405 28.5066 24.4406 28.5066 24.4406 28.5066L24.4406 28.5065C25.0008 27.9629 25.8192 26.5059 24.9827 25.0837L24.9827 25.0836C24.9827 25.0836 24.9826 25.0836 24.9826 25.0836C24.9826 25.0836 24.9826 25.0835 24.9826 25.0835L24.9825 25.0837C23.7475 26.1777 24.0757 27.8164 24.4405 28.5065L24.4405 28.5066C24.4405 28.5066 24.4405 28.5065 24.4405 28.5065Z" fill="#62A3F9"/>
<path fill-rule="evenodd" clip-rule="evenodd" d="M14.7804 14.9207C14.4156 14.2306 14.0873 12.5917 15.3225 11.4976L14.7804 14.9207ZM14.7807 14.9201C15.3409 14.3766 16.1596 12.9194 15.3228 11.4971L14.7807 14.9201Z" fill="#62A3F9"/>
<path fill-rule="evenodd" clip-rule="evenodd" d="M14.801 14.9011C13.7071 16.1364 12.0685 15.808 11.3786 15.4431L11.3801 15.4429C11.9236 14.8826 13.3805 14.0641 14.8025 14.9009L14.801 14.9011Z" fill="#62A3F9"/>
<path fill-rule="evenodd" clip-rule="evenodd" d="M27.2056 20.1619C27.9514 19.932 29.3423 19.0053 29.2423 17.358L27.2056 20.1619ZM27.2047 20.1613C27.1929 19.3808 27.6442 17.7714 29.2415 17.3575L27.2047 20.1613Z" fill="#62A3F9"/>
<path fill-rule="evenodd" clip-rule="evenodd" d="M29.2445 22.9362C29.2563 22.1557 28.8049 20.5463 27.2077 20.1324L29.2445 22.9362ZM29.2435 22.9366C28.4977 22.7067 27.1068 21.78 27.2067 20.1327L29.2435 22.9366Z" fill="#62A3F9"/>
<path fill-rule="evenodd" clip-rule="evenodd" d="M12.8062 20.1599C12.0603 19.93 10.6694 19.0033 10.7694 17.3561L12.8062 20.1599ZM12.807 20.1593C12.8189 19.3788 12.3675 17.7694 10.7702 17.3555L12.807 20.1593Z" fill="#62A3F9"/>
<path fill-rule="evenodd" clip-rule="evenodd" d="M10.7681 22.9343C11.5139 22.7044 12.9048 21.7777 12.8048 20.1305L10.7681 22.9343ZM10.7672 22.9337C10.7554 22.1532 11.2067 20.5439 12.804 20.1299L10.7672 22.9337Z" fill="#62A3F9"/>
</svg>
