<svg width="41" height="41" viewBox="0 0 41 41" fill="none" xmlns="http://www.w3.org/2000/svg">
<path fill-rule="evenodd" clip-rule="evenodd" d="M20.22 35.3254C21.8267 35.301 25.1397 36.2306 25.9919 39.5196L20.22 35.3254ZM20.2201 35.3256C20.6934 36.8614 22.6011 39.7255 25.9921 39.5197L20.2201 35.3256Z" fill="white"/>
<path fill-rule="evenodd" clip-rule="evenodd" d="M14.5071 39.5201C16.1138 39.5445 19.4268 38.6149 20.2791 35.3259L14.5071 39.5201ZM14.5072 39.5198C14.9805 37.9841 16.8882 35.12 20.2792 35.3257L14.5072 39.5198Z" fill="white"/>
<path fill-rule="evenodd" clip-rule="evenodd" d="M20.22 5.67524C21.8267 5.69961 25.1397 4.77003 25.9919 1.48102L20.22 5.67524ZM20.2201 5.67499C20.6934 4.13921 22.6011 1.27514 25.9921 1.48086L20.2201 5.67499Z" fill="white"/>
<path fill-rule="evenodd" clip-rule="evenodd" d="M14.5071 1.47991C16.1138 1.45555 19.4268 2.38512 20.2791 5.67413L14.5071 1.47991ZM14.5072 1.48016C14.9805 3.01594 16.8882 5.88001 20.2792 5.67429L14.5072 1.48016Z" fill="white"/>
<path fill-rule="evenodd" clip-rule="evenodd" d="M9.74401 30.9606C10.8973 32.0796 12.5828 35.08 10.86 38.0084L9.74401 30.9606ZM9.74351 30.9608C8.99236 32.3815 8.31638 35.7559 10.8596 38.0085L9.74351 30.9608Z" fill="white"/>
<path fill-rule="evenodd" clip-rule="evenodd" d="M2.74211 29.888C4.16259 29.1367 7.53643 28.4606 9.78869 31.0043L2.74211 29.888ZM2.74271 29.8884C3.86154 31.0419 6.86136 32.7277 9.78929 31.0046L2.74271 29.8884Z" fill="white"/>
<path fill-rule="evenodd" clip-rule="evenodd" d="M30.705 9.9971C32.1255 9.24584 35.4994 8.56975 37.7516 11.1134L30.705 9.9971ZM30.7056 9.99751C31.8244 11.151 34.8243 12.8368 37.7523 11.1137L30.7056 9.99751Z" fill="white"/>
<path fill-rule="evenodd" clip-rule="evenodd" d="M29.6361 2.99074C28.8849 4.41143 28.2089 7.78579 30.7522 10.0384L29.6361 2.99074ZM29.6362 2.99095C30.7896 4.10996 32.4751 7.11024 30.7523 10.0386L29.6362 2.99095Z" fill="white"/>
<path fill-rule="evenodd" clip-rule="evenodd" d="M30.7089 31.0064C32.1294 31.7577 35.5032 32.4338 37.7555 29.8901L30.7089 31.0064ZM30.7093 31.0062C31.8281 29.8527 34.8279 28.167 37.7559 29.89L30.7093 31.0062Z" fill="white"/>
<path fill-rule="evenodd" clip-rule="evenodd" d="M29.6322 38.0118C28.881 36.5911 28.205 33.2167 30.7483 30.9641L29.6322 38.0118ZM29.6327 38.0116C30.786 36.8926 32.4715 33.8923 30.7487 30.9639L29.6327 38.0116Z" fill="white"/>
<path fill-rule="evenodd" clip-rule="evenodd" d="M9.74156 10.0403C8.99041 8.61957 8.31441 5.24522 10.8577 2.99261L9.74156 10.0403ZM9.74207 10.0396C10.8954 8.92061 12.5809 5.92033 10.8581 2.99195L9.74207 10.0396Z" fill="white"/>
<path fill-rule="evenodd" clip-rule="evenodd" d="M2.74016 11.1146C4.16065 11.8659 7.53452 12.5419 9.78681 9.9983L2.74016 11.1146ZM2.74075 11.1142C3.8596 9.96067 6.85945 8.27494 9.78742 9.99799L2.74075 11.1142Z" fill="white"/>
<path fill-rule="evenodd" clip-rule="evenodd" d="M35.3245 20.8313C36.8601 20.358 39.7238 18.4501 39.518 15.0586L35.3245 20.8313ZM35.3242 20.8311C35.2998 19.2242 36.2291 15.9107 39.5178 15.0584L35.3242 20.8311Z" fill="white"/>
<path fill-rule="evenodd" clip-rule="evenodd" d="M39.5193 26.544C37.9837 26.0706 35.1199 24.1627 35.3258 20.7712L39.5193 26.544ZM39.5195 26.5438C39.544 24.9368 38.6146 21.6233 35.326 20.7711L39.5195 26.5438Z" fill="white"/>
<path fill-rule="evenodd" clip-rule="evenodd" d="M1.48202 15.0578C1.27627 18.4493 4.13993 20.3571 5.67552 20.8305L5.67533 20.8302C5.69976 19.2233 4.77042 15.9097 1.48178 15.0575L1.48202 15.0578Z" fill="white"/>
<path fill-rule="evenodd" clip-rule="evenodd" d="M5.6722 20.7701C2.38368 21.6224 1.45436 24.9358 1.47879 26.5428L1.47891 26.5426C3.01453 26.0692 5.87821 24.1613 5.67238 20.7699L5.6722 20.7701Z" fill="white"/>
<path fill-rule="evenodd" clip-rule="evenodd" d="M20.2957 31.0882C20.6338 32.1851 21.9964 34.2308 24.4184 34.0839L20.2957 31.0882ZM20.2967 31.0884C21.4442 31.071 23.8106 31.735 24.4193 34.0842L20.2967 31.0884Z" fill="white"/>
<path fill-rule="evenodd" clip-rule="evenodd" d="M16.2157 34.0845C16.5537 32.9875 17.9163 30.9418 20.3383 31.0887L16.2157 34.0845ZM16.2162 34.0848C17.3638 34.1022 19.7301 33.4383 20.3388 31.089L16.2162 34.0848Z" fill="white"/>
<path fill-rule="evenodd" clip-rule="evenodd" d="M20.2918 9.90953C20.6299 8.81257 21.9925 6.76686 24.4145 6.9138L20.2918 9.90953ZM20.2924 9.90955C21.44 9.92696 23.8063 9.263 24.415 6.91376L20.2924 9.90955Z" fill="white"/>
<path fill-rule="evenodd" clip-rule="evenodd" d="M16.2157 6.91359C16.5537 8.01055 17.9163 10.0563 20.3383 9.90932L16.2157 6.91359ZM16.2162 6.91346C17.3638 6.89606 19.7301 7.56002 20.3388 9.90925L16.2162 6.91346Z" fill="white"/>
<path fill-rule="evenodd" clip-rule="evenodd" d="M12.8176 27.9715C12.8175 27.9714 12.8174 27.9713 12.8173 27.9712L12.8174 27.9718C12.281 28.9867 11.7986 31.3963 13.6144 33.005L13.6145 33.0052C13.6145 33.0052 13.6145 33.0051 13.6145 33.0051C13.6146 33.0052 13.6147 33.0053 13.6148 33.0054L13.6147 33.0047C14.8446 30.9135 13.6413 28.7709 12.8176 27.9715L12.8176 27.9714C12.8176 27.9714 12.8176 27.9714 12.8176 27.9715Z" fill="white"/>
<path fill-rule="evenodd" clip-rule="evenodd" d="M12.8468 28.0014C11.2382 26.1846 8.82841 26.6675 7.81385 27.2041L10.2784 27.5945L7.81471 27.2043C8.61383 28.0282 10.7565 29.2323 12.8477 28.0015L12.8468 28.0014Z" fill="white"/>
<path fill-rule="evenodd" clip-rule="evenodd" d="M27.7885 12.9958C28.803 12.4592 31.2128 11.9763 32.8215 13.7932L27.7885 12.9958ZM27.789 12.9962C28.5881 13.8202 30.7307 15.0242 32.822 13.7935L27.789 12.9962Z" fill="white"/>
<path fill-rule="evenodd" clip-rule="evenodd" d="M27.0188 7.99168C26.4823 9.00643 25.9994 11.4166 27.816 13.0256L27.0188 7.99168ZM27.0189 7.99187C27.8427 8.79113 29.0465 10.9341 27.816 13.0258L27.0189 7.99187Z" fill="white"/>
<path fill-rule="evenodd" clip-rule="evenodd" d="M32.8175 27.2047C31.2089 29.0215 28.7991 28.5386 27.7846 28.002L30.2403 27.6129L27.7854 28.0018C28.5845 27.1779 30.7272 25.9738 32.8184 27.2045L32.8175 27.2047Z" fill="white"/>
<path fill-rule="evenodd" clip-rule="evenodd" d="M27.0188 33.0069C26.4822 31.9921 25.9994 29.5819 27.8159 27.9729L27.0188 33.0069ZM27.0191 33.0067C27.8429 32.2074 29.0468 30.0644 27.8163 27.9727L27.0191 33.0067Z" fill="white"/>
<path fill-rule="evenodd" clip-rule="evenodd" d="M12.8215 13.0269C12.285 12.0121 11.8022 9.6019 13.6187 7.99292L12.8215 13.0269ZM12.8216 13.0267C13.6454 12.2274 14.8492 10.0844 13.6187 7.99273L12.8216 13.0267Z" fill="white"/>
<path fill-rule="evenodd" clip-rule="evenodd" d="M12.8527 12.9971C11.244 14.814 8.83427 14.331 7.81971 13.7944L10.2776 13.4051L7.82057 13.7943C8.61969 12.9703 10.7623 11.7663 12.8536 12.997L12.8527 12.9971Z" fill="white"/>
<path fill-rule="evenodd" clip-rule="evenodd" d="M31.0832 20.7355C31.0832 20.7355 31.0832 20.7355 31.0832 20.7356L31.0833 20.7354C32.1801 20.3972 34.2252 19.0346 34.0783 16.6125L34.0784 16.6124C34.0784 16.6124 34.0784 16.6124 34.0783 16.6124C34.0783 16.6123 34.0783 16.6123 34.0783 16.6122L34.0782 16.6124C31.7296 17.2212 31.0658 19.5876 31.0832 20.7354L31.0831 20.7355C31.0831 20.7355 31.0832 20.7355 31.0832 20.7355Z" fill="white"/>
<path fill-rule="evenodd" clip-rule="evenodd" d="M34.0771 24.8166C32.9803 24.4785 30.9348 23.1157 31.0819 20.6933L34.0771 24.8166ZM34.0774 24.8162C34.0949 23.6684 33.4311 21.3017 31.0822 20.6929L34.0774 24.8162Z" fill="white"/>
<path fill-rule="evenodd" clip-rule="evenodd" d="M9.91105 20.7359C8.81424 20.3978 6.76883 19.035 6.91585 16.6126L9.91105 20.7359ZM9.91142 20.7355C9.92886 19.5877 9.26508 17.221 6.91617 16.6123L9.91142 20.7355Z" fill="white"/>
<path fill-rule="evenodd" clip-rule="evenodd" d="M6.91592 24.816C6.91565 24.816 6.91539 24.8161 6.91512 24.8162L6.91591 24.8151C6.89897 23.6671 7.5629 21.3025 9.90992 20.6935L9.91032 20.6929C9.91033 20.6931 9.91034 20.6932 9.91035 20.6934C9.91062 20.6933 9.9109 20.6932 9.91117 20.6932L9.9104 20.6942C10.0566 23.1149 8.01325 24.4772 6.91634 24.8158L6.91593 24.8164C6.91593 24.8163 6.91592 24.8161 6.91592 24.816Z" fill="white"/>
<path fill-rule="evenodd" clip-rule="evenodd" d="M20.3634 27.7022C20.5933 28.4482 21.5199 29.8392 23.1669 29.7393L20.3634 27.7022ZM20.3646 27.7013C21.1449 27.6895 22.754 28.141 23.168 29.7385L20.3646 27.7013Z" fill="white"/>
<path fill-rule="evenodd" clip-rule="evenodd" d="M17.5881 29.7395C17.8179 28.9936 18.7445 27.6025 20.3915 27.7025L17.5881 29.7395ZM17.5892 29.7401C18.3695 29.752 19.9787 29.3005 20.3926 27.703L17.5892 29.7401Z" fill="white"/>
<path fill-rule="evenodd" clip-rule="evenodd" d="M20.3634 13.3C20.5933 12.554 21.5199 11.163 23.1669 11.2629L20.3634 13.3ZM20.3653 13.3003C21.1456 13.3122 22.7548 12.8607 23.1687 11.2632L20.3653 13.3003Z" fill="white"/>
<path fill-rule="evenodd" clip-rule="evenodd" d="M17.5881 11.2628C17.8179 12.0087 18.7445 13.3998 20.3915 13.2999L17.5881 11.2628ZM17.5892 11.2622C18.3695 11.2504 19.9787 11.7018 20.3926 13.2993L17.5892 11.2622Z" fill="white"/>
<path fill-rule="evenodd" clip-rule="evenodd" d="M15.2843 25.5831C14.9195 26.2731 14.5912 27.9121 15.8264 29.0062L15.2843 25.5831ZM15.2858 25.5834C15.846 26.1269 16.6646 27.5841 15.8279 29.0064L15.2858 25.5834Z" fill="white"/>
<path fill-rule="evenodd" clip-rule="evenodd" d="M15.305 25.6045C14.211 24.3691 12.5725 24.6975 11.8826 25.0624L11.8835 25.0625C12.427 25.6228 13.8839 26.4415 15.306 25.6046L15.305 25.6045Z" fill="white"/>
<path fill-rule="evenodd" clip-rule="evenodd" d="M28.8889 15.9428C27.795 14.7075 26.1564 15.0359 25.4665 15.4007L25.4674 15.4009C26.011 15.9611 27.4679 16.7797 28.8898 15.9429L28.8889 15.9428Z" fill="white"/>
<path fill-rule="evenodd" clip-rule="evenodd" d="M24.9445 11.9983C24.5797 12.6883 24.2513 14.3272 25.4866 15.4213L24.9445 11.9983ZM24.9448 11.9988C25.505 12.5423 26.3236 13.9995 25.4869 15.4219L24.9448 11.9988Z" fill="white"/>
<path fill-rule="evenodd" clip-rule="evenodd" d="M28.8889 25.0623C27.795 26.2976 26.1564 25.9693 25.4665 25.6044L25.4675 25.6042C26.011 25.044 27.4679 24.2253 28.89 25.0621L28.8889 25.0623Z" fill="white"/>
<path fill-rule="evenodd" clip-rule="evenodd" d="M24.9405 29.0068C24.9405 29.0068 24.9406 29.0068 24.9406 29.0069L24.9406 29.0067C25.5007 28.4631 26.3192 27.0061 25.4826 25.5839L25.4827 25.5838C25.4826 25.5838 25.4826 25.5838 25.4826 25.5838C25.4826 25.5838 25.4826 25.5838 25.4825 25.5837L25.4825 25.5839C24.2475 26.6779 24.5757 28.3167 24.9405 29.0067L24.9405 29.0068C24.9405 29.0068 24.9405 29.0068 24.9405 29.0068Z" fill="white"/>
<path fill-rule="evenodd" clip-rule="evenodd" d="M15.2804 15.4203C14.9156 14.7303 14.5873 13.0913 15.8225 11.9972L15.2804 15.4203ZM15.2807 15.4198C15.8409 14.8763 16.6595 13.419 15.8228 11.9967L15.2807 15.4198Z" fill="white"/>
<path fill-rule="evenodd" clip-rule="evenodd" d="M15.301 15.4009C14.2071 16.6361 12.5685 16.3077 11.8787 15.9429L11.8801 15.9426C12.4236 15.3824 13.8805 14.5638 15.3025 15.4006L15.301 15.4009Z" fill="white"/>
<path fill-rule="evenodd" clip-rule="evenodd" d="M27.7056 20.6619C28.4514 20.432 29.8423 19.5053 29.7423 17.858L27.7056 20.6619ZM27.7047 20.6613C27.6929 19.8808 28.1442 18.2714 29.7415 17.8575L27.7047 20.6613Z" fill="white"/>
<path fill-rule="evenodd" clip-rule="evenodd" d="M29.7445 23.4362C29.7563 22.6557 29.3049 21.0463 27.7077 20.6324L29.7445 23.4362ZM29.7435 23.4366C28.9977 23.2067 27.6068 22.28 27.7067 20.6327L29.7435 23.4366Z" fill="white"/>
<path fill-rule="evenodd" clip-rule="evenodd" d="M13.3062 20.6597C12.5603 20.4298 11.1694 19.5031 11.2694 17.8558L13.3062 20.6597ZM13.307 20.6591C13.3189 19.8786 12.8675 18.2692 11.2702 17.8553L13.307 20.6591Z" fill="white"/>
<path fill-rule="evenodd" clip-rule="evenodd" d="M11.2681 23.4342C12.0139 23.2043 13.4048 22.2776 13.3048 20.6304L11.2681 23.4342ZM11.2672 23.4336C11.2554 22.6531 11.7067 21.0437 13.304 20.6298L11.2672 23.4336Z" fill="white"/>
</svg>
